<?xml version="1.0" encoding="UTF-8" standalone="no"?>
<!-- Created with Inkscape (http://www.inkscape.org/) -->

<svg
   version="1.1"
   id="svg1"
   width="1122.807"
   height="793.82458"
   viewBox="0 0 1122.807 793.82458"
   sodipodi:docname="FZH-logo.svg"
   inkscape:version="1.4.3 (0d15f75042, 2025-12-25)"
   xmlns:inkscape="http://www.inkscape.org/namespaces/inkscape"
   xmlns:sodipodi="http://sodipodi.sourceforge.net/DTD/sodipodi-0.dtd"
   xmlns="http://www.w3.org/2000/svg"
   xmlns:svg="http://www.w3.org/2000/svg">
  <defs
     id="defs1" />
  <sodipodi:namedview
     id="namedview1"
     pagecolor="#ffffff"
     bordercolor="#000000"
     borderopacity="0.25"
     inkscape:showpageshadow="2"
     inkscape:pageopacity="0.0"
     inkscape:pagecheckerboard="0"
     inkscape:deskcolor="#d1d1d1"
     showgrid="false"
     inkscape:zoom="0.27342188"
     inkscape:cx="561.4035"
     inkscape:cy="396.82267"
     inkscape:window-width="1025"
     inkscape:window-height="698"
     inkscape:window-x="0"
     inkscape:window-y="0"
     inkscape:window-maximized="1"
     inkscape:current-layer="g1" />
  <g
     inkscape:groupmode="layer"
     inkscape:label="Image"
     id="g1">
    <path
       style="fill:#000000"
       d="m 241.83222,458.73206 0.14092,-277.7544 46.45614,-0.1436 46.45614,-0.14359 v 277.89799 277.89798 h -46.59706 -46.59705 z m 135.15846,237.82827 v -39.92611 l 3.78947,-3.8026 c 3.85505,-3.8684 106.8743,-102.90466 113.54386,-109.15396 4.58656,-4.29755 121.94401,-117.2813 151.57102,-145.92225 6.02541,-5.82487 31.21625,-30.14188 55.97964,-54.03781 l 45.02435,-43.44716 55.48132,0.14308 55.48133,0.14308 -36.14922,34.80703 c -19.88207,19.14386 -47.66257,45.92281 -61.73443,59.50878 -14.07187,13.58596 -27.16567,26.21754 -29.09735,28.07017 -1.93167,1.85263 -21.90505,21.0818 -44.38528,42.73149 -22.48022,21.64969 -55.52577,53.45839 -73.43454,70.68601 -17.90877,17.22762 -53.97361,51.93529 -80.1441,77.12816 l -47.5827,45.80522 188.07393,0.14117 188.07392,0.14118 v 38.45532 38.45531 H 619.23629 376.99068 Z M 904.14857,458.59171 V 180.69047 l 46.4561,0.14359 46.4562,0.1436 v 277.61405 277.61403 l -46.4562,0.14359 -46.4561,0.1436 z m -526.78362,38.36257 c -0.20585,-0.20585 -0.37427,-17.51904 -0.37427,-38.47376 0,-29.96299 0.14987,-38.15649 0.70175,-38.36637 0.38597,-0.14677 42.03196,-0.202 92.54666,-0.12273 l 91.8449,0.14414 -39.91507,38.56666 -39.91508,38.56665 -52.25731,0.0298 c -28.74152,0.0164 -52.42573,-0.13858 -52.63158,-0.34443 z m 345.34238,-7.66587 c 4.53654,-4.42208 22.57517,-21.85366 40.08583,-38.73684 l 31.83757,-30.69671 h 33.42559 33.42558 v 38.73685 38.73684 H 787.97049 714.45907 Z M 376.99068,219.9952 v -38.17544 h -2.80702 c -1.54386,0 -2.80702,-0.25263 -2.80702,-0.5614 0,-0.37341 82.05848,-0.5614 245.05263,-0.5614 H 861.4819 v 38.73683 38.73685 H 619.23629 376.99068 Z"
       id="path1" />
  </g>
</svg>
